<svg width="1202" height="131" viewBox="0 0 1202 131" fill="none" xmlns="http://www.w3.org/2000/svg">
<path d="M0 125V130.9H999.467L1078.13 79.4L1122.5 97.6L1201.5 0L1114.63 80.5L1074.13 64.6L998.4 125H0Z" fill="white"/>
<path d="M110.727 86.6348C107.764 86.6348 105.372 86.4232 103.549 86C101.726 85.5768 100.261 85.0153 99.1543 84.3154C98.0638 83.6156 97.193 82.7204 96.542 81.6299C95.891 80.5231 95.4515 79.3919 95.2236 78.2363C95.012 77.0807 94.9062 75.7298 94.9062 74.1836V62.1475C94.9062 57.8506 95.777 54.8395 97.5186 53.1143C99.2601 51.3727 101.571 50.2578 104.452 49.7695C106.08 49.4766 107.919 49.3382 109.97 49.3545C117.408 49.3545 121.843 51.389 123.275 55.458C123.926 57.2809 124.252 59.4619 124.252 62.001V62.4404L117.147 63.2705V61.4395C117.147 58.9329 116.651 57.2402 115.658 56.3613C114.682 55.4824 112.802 55.043 110.019 55.043C107.235 55.043 105.225 55.4906 103.988 56.3857C102.768 57.2646 102.157 58.9004 102.157 61.293V74.916C102.157 77.3249 102.784 78.9362 104.037 79.75C105.307 80.5475 107.317 80.9463 110.067 80.9463C111.516 80.9463 112.663 80.873 113.51 80.7266C114.356 80.5638 115.064 80.2464 115.634 79.7744C116.22 79.3024 116.618 78.6758 116.83 77.8945C117.042 77.1133 117.147 76.0716 117.147 74.7695V73.6221H124.252V74.2812C124.252 77.8457 123.723 80.4255 122.665 82.0205C121.623 83.5993 120.118 84.763 118.148 85.5117C116.179 86.2604 113.705 86.6348 110.727 86.6348ZM140.243 86.293C137.232 86.293 135.002 85.6094 133.554 84.2422C132.105 82.875 131.381 80.5882 131.381 77.3818V49.0127H138.021V77.2842C138.021 78.749 138.363 79.7988 139.047 80.4336C139.73 81.0521 140.951 81.3613 142.709 81.3613H143.539L143.026 86.293H140.243ZM148.715 56.0439V50.1602H155.355V56.0439H148.715ZM148.715 86V59.7793H155.355V86H148.715ZM163.168 86V59.7793H169.809V62.123C170.72 61.179 171.9 60.4629 173.349 59.9746C174.813 59.4701 176.213 59.2178 177.548 59.2178C181.047 59.2178 183.448 60.3001 184.75 62.4648C186.915 60.3001 189.82 59.2178 193.466 59.2178C195.972 59.2178 197.982 59.9014 199.496 61.2686C201.026 62.6195 201.791 64.4017 201.791 66.6152V86H195.15V67.3965C195.15 66.127 194.817 65.2643 194.149 64.8086C193.498 64.3366 192.546 64.1006 191.293 64.1006C190.056 64.1006 188.86 64.4261 187.704 65.0771C186.565 65.7282 185.946 66.599 185.849 67.6895V86H179.208V67.3965C179.208 66.127 178.858 65.2643 178.158 64.8086C177.458 64.3366 176.465 64.1006 175.18 64.1006C173.91 64.1006 172.698 64.4505 171.542 65.1504C170.386 65.834 169.809 66.7699 169.809 67.958V86H163.168ZM225.277 67.4941C225.277 65.069 223.78 63.8564 220.785 63.8564C219.32 63.8564 217.742 64.2633 216.049 65.0771V80.7266C217.058 81.5078 218.409 81.8984 220.102 81.8984C223.552 81.8984 225.277 80.637 225.277 78.1143V67.4941ZM231.918 77.9678C231.918 80.5394 230.966 82.6146 229.062 84.1934C227.174 85.7721 224.83 86.5615 222.03 86.5615C219.247 86.5615 216.781 85.8454 214.633 84.4131L213.974 86H209.408V48.9883H216.049V60.6094C217.807 59.6816 219.581 59.2178 221.371 59.2178C225.782 59.2178 228.793 60.3571 230.404 62.6357C231.413 64.068 231.918 65.7282 231.918 67.6162V77.9678ZM259.97 86V72.1572L247.543 49.9648H255.185L263.632 65.0283L272.055 49.9648H279.379L267.196 72.1572V86H259.97ZM293.49 86.5615C285.906 86.5615 282.113 83.7295 282.113 78.0654V67.7383C282.113 65.0527 283.106 62.9613 285.092 61.4639C287.094 59.9665 289.885 59.2178 293.466 59.2178C297.063 59.2178 299.862 59.9746 301.864 61.4883C303.866 62.9857 304.867 65.069 304.867 67.7383V78.0654C304.867 82.2809 302.865 84.9176 298.861 85.9756C297.364 86.3662 295.574 86.5615 293.49 86.5615ZM293.49 81.9473C296.648 81.9473 298.227 80.751 298.227 78.3584V67.4453C298.227 66.1595 297.828 65.2399 297.03 64.6865C296.233 64.1331 295.053 63.8564 293.49 63.8564C290.333 63.8564 288.754 65.0527 288.754 67.4453V78.3584C288.754 79.6442 289.145 80.5638 289.926 81.1172C290.723 81.6706 291.911 81.9473 293.49 81.9473ZM328.085 83.1191C327.564 84.1934 326.555 85.0397 325.058 85.6582C323.56 86.2604 321.9 86.5615 320.077 86.5615C317.457 86.5615 315.39 85.8372 313.876 84.3887C312.362 82.9401 311.605 81.109 311.605 78.8955V59.7793H318.246V77.8213C318.246 79.0745 318.686 80.0104 319.564 80.6289C320.46 81.2474 321.55 81.5566 322.836 81.5566C324.122 81.5566 325.285 81.2148 326.327 80.5312C327.369 79.8314 327.89 78.806 327.89 77.4551V59.7793H334.53V86H328.28L328.085 83.1191ZM342.27 86V59.7793H348.91V62.9043C349.301 62.1556 350.115 61.4883 351.352 60.9023C353.484 59.877 355.543 59.3643 357.528 59.3643C357.756 59.3643 357.968 59.3724 358.163 59.3887L358.017 65.0283C355.103 65.1748 352.686 65.7201 350.766 66.6641C349.691 67.1849 349.073 67.7708 348.91 68.4219V86H342.27ZM375.912 86V49.9648H383.163V80.3359H398.227V86H375.912ZM403.939 56.0439V50.1602H410.58V56.0439H403.939ZM403.939 86V59.7793H410.58V86H403.939ZM420.077 86V64.0029H416.586V59.7793H420.077V58.5342C420.077 55.3604 420.785 52.9759 422.201 51.3809C423.617 49.7858 425.855 48.9883 428.915 48.9883H431.991L432.162 53.6025H430.111C428.793 53.6025 427.898 53.9199 427.426 54.5547C426.954 55.1732 426.718 56.0033 426.718 57.0449V59.7793H431.942V64.0029H426.718V86H420.077ZM442.953 70.1064H452.377V67.0303C452.377 65.4515 451.742 64.4831 450.473 64.125C449.805 63.9297 448.788 63.8402 447.421 63.8564C446.07 63.8564 444.988 64.0843 444.174 64.54C443.36 64.9958 442.953 65.8665 442.953 67.1523V70.1064ZM443.1 86.1221C441.798 85.8454 440.626 85.3815 439.584 84.7305C437.403 83.3958 436.312 81.0846 436.312 77.7969V67.5674C436.312 64.9307 437.313 62.8799 439.315 61.415C441.317 59.9502 444.044 59.2178 447.494 59.2178C454.932 59.2178 458.651 62.0824 458.651 67.8115V74.1592H442.953V78.4316C442.953 79.8802 443.311 80.8324 444.027 81.2881C444.743 81.7275 445.956 81.9473 447.665 81.9473C449.374 81.9473 450.383 81.8659 450.692 81.7031C451.425 81.2962 451.897 80.8079 452.108 80.2383C452.32 79.6523 452.442 78.8874 452.475 77.9434H458.627C458.529 81.9798 457.105 84.5352 454.354 85.6094C452.743 86.2279 450.79 86.5371 448.495 86.5371C446.2 86.5534 444.402 86.415 443.1 86.1221Z" fill="white"/>
</svg>
