<svg width="533" height="242" viewBox="0 0 533 242" fill="none" xmlns="http://www.w3.org/2000/svg">
<path d="M84.5996 191.5L150.733 98.5L204.733 126.3L286.733 60.6L425.533 130.9L343.4 198.6L84.5996 191.5Z" fill="#6C8CC7"/>
<path d="M413.8 98.5L359.133 138.7L280.867 108.7L223.8 161L149.534 124.3L0.466797 242L420.333 166.7L413.8 98.5Z" fill="#11292F"/>
<path d="M0.466797 242L149 132.6L228.867 175.8L282.467 121L368.334 156.9L533 0V242H0.466797Z" fill="white"/>
<path d="M241 202.1L282.467 147L300.2 150L241 202.1Z" fill="#11292F"/>
<path d="M147.933 147L165.133 162.9L58.5996 225.8L147.933 147Z" fill="#11292F"/>
<path d="M510.733 40.9L457.666 99.9L474.866 105.7L412.199 156.1L500.199 113.7L510.733 40.9Z" fill="#11292F"/>
<path d="M360.199 105.7L292.199 70.7L306.599 86.8L301.533 93L360.199 105.7Z" fill="white"/>
</svg>
