<svg width="1440" height="435" viewBox="0 0 1440 435" fill="none" xmlns="http://www.w3.org/2000/svg">
<path d="M0 435L55.69 362.94L65.58 398.97L97.79 336.87L108.85 362.94L129.44 236.34H465.75L521.07 105.99L535.47 149.77L578.67 68.1902L591.56 135.76V90.1702L610.5 109.01L656.74 0.000244141H1440V435L549.5 431.5L0 435Z" fill="#11292F"/>
<path d="M0 435L55.69 362.94L65.58 398.97L97.79 336.87L108.85 362.94L129.44 236.34H465.75L521.07 105.99L535.47 149.77L578.67 68.1902L591.56 135.76V90.1702L610.5 109.01L656.74 0.000244141H0V435Z" fill="#9FD18B"/>
<path d="M549.95 434.73L541.03 347.1L569.32 367.08L596.1 273.58L608.99 305.42L708.27 149.77L703.72 216.65L797.7 157.63L757.91 242.89L802.63 217.63L740 435L549.95 434.73Z" fill="white"/>
<path d="M1053.28 242.85L1029.56 215.56L1028.48 218.64L1029.56 215.56L1026.97 212.57L1029.56 215.56L1052.62 149.73L986.04 86.0002L970.88 108.36L974.29 42.0502L892.06 116.32V88.6602L844.76 170.16L884.21 247.44L1021.66 309.58L1053.28 242.85Z" fill="#9FD18B"/>
<path d="M717.94 435L757.79 284.19L671.89 352.75L789.11 142.13L815.13 119.2L802.63 348.62L735.63 435H717.94Z" fill="#11292F"/>
<path d="M1051.98 217.63L990.21 110.26L963.68 134.51L945.87 91.3102L841.66 189.46L865.53 257.67L1045.91 278.89L1051.98 217.63Z" fill="#11292F"/>
<path d="M49.1504 165.69V197.68L55.6904 182.95L49.1504 165.69Z" fill="#11292F"/>
<path d="M123.26 120.396L108.85 105.985L49.1486 165.686L63.5594 180.097L123.26 120.396Z" fill="#11292F"/>
<path d="M299.68 109.01H279.3V216.64H299.68V109.01Z" fill="#11292F"/>
<path d="M359.58 119.72L342.24 109.02L320.96 143.48L332.94 162.88L359.58 119.72Z" fill="#11292F"/>
<path d="M299.68 109.02L282.34 119.72L308.99 162.88L320.96 143.48L299.68 109.02Z" fill="#11292F"/>
<path d="M320.96 143.48L308.99 162.88L320.96 182.27L332.94 162.88L320.96 143.48Z" fill="#11292F"/>
<path d="M362.62 109.01H342.24V216.64H362.62V109.01Z" fill="#11292F"/>
<path d="M258.04 149.77H237.66V216.65H258.04V149.77Z" fill="#11292F"/>
<path d="M258.04 109.01H237.66V129.39H258.04V109.01Z" fill="#11292F"/>
<path d="M168.61 109.01H148.23V216.64H168.61V109.01Z" fill="#11292F"/>
<path d="M212.2 216.64V196.26H148.21V216.64H212.2Z" fill="#11292F"/>
<path d="M68.2058 158.485L49.1465 165.702L68.4429 216.661L87.5022 209.444L68.2058 158.485Z" fill="#11292F"/>
<path d="M450.15 124.71L415.93 109H382.05V216.65H415.93L450.15 201V178.53L415.93 162.83L450.15 147.13V124.71ZM425.71 189.71L411.48 196.24H402.43V182.89H410.78L425.71 189.71ZM412.17 142.1H402.43V129.4H411.48L425.71 135.92L412.17 142.1Z" fill="#11292F"/>
<path d="M132.43 216.65V196.27H68.4397V216.65H132.43Z" fill="#11292F"/>
<path d="M258.04 296.06H237.66V362.94H258.04V296.06Z" fill="white"/>
<path d="M258.04 255.3H237.66V275.68H258.04V255.3Z" fill="white"/>
<path d="M299.68 255.3H279.3V362.93H299.68V255.3Z" fill="white"/>
<path d="M363.21 255.3H279.3V275.68H363.21V255.3Z" fill="white"/>
<path d="M342.24 300.11H279.3V320.49H342.24V300.11Z" fill="white"/>
<path d="M402.43 255.3H382.05V362.93H402.43V255.3Z" fill="white"/>
<path d="M450.74 255.3H382.05V275.68H450.74V255.3Z" fill="white"/>
<path d="M450.74 300.11H382.05V320.49H450.74V300.11Z" fill="white"/>
<path d="M450.74 342.56H382.05V362.94H450.74V342.56Z" fill="white"/>
<path d="M168.61 255.3H148.23V362.93H168.61V255.3Z" fill="white"/>
<path d="M212.21 342.56H148.22V362.94H212.21V342.56Z" fill="white"/>
<path d="M108.85 105.99L74.0004 119.2L84.7804 125.61L57.7004 137.84L64.3904 143.05L49.1504 165.69L108.85 105.99Z" fill="#11292F"/>
<path d="M735.63 435L796.19 225.84L699.18 320.49L815.13 119.2L855.3 206.46L941.7 105.99L961.41 162.83L987.18 129.4L1026.59 255.3L1084.19 93.9602L1099.35 142.13L1152.9 0.000244141H1440V435H735.63Z" fill="#F69A9B"/>
<path d="M1223.64 62.1302L1116.02 238.72L1144.06 384.24L1177.41 290.26L1150.88 255.3L1223.64 62.1302Z" fill="#11292F"/>
<path d="M1006.12 284.19L979.6 173.54L954.59 201.58L975.05 196.27L1006.12 284.19Z" fill="#11292F"/>
<path d="M796.19 278.89L809.07 206.46L768.14 234.17L827.26 169.75L796.19 278.89Z" fill="#11292F"/>
<path d="M935.64 129.4L838.63 261.46L845.45 320.49L935.64 129.4Z" fill="#11292F"/>
<path d="M1281.24 0.000244141L1349.45 189.46L1357.03 118.97L1440 372.87V0.000244141H1281.24Z" fill="#11292F"/>
<path d="M522.59 173.54L476.36 269.04V373.63L522.59 173.54Z" fill="white"/>
<path d="M177.24 91.7501H422.8L363.21 67.5001L177.24 91.7501Z" fill="#11292F"/>
<path d="M0 435L124.19 411.77L627.43 435H735.63L997.79 394.85L1131.18 435H1440H0Z" fill="white"/>
<path d="M1440 0L1404.02 119.73L1360.62 67.1802L1354.95 81.6202L1335.35 131.57L1340.6 146.23L1359.43 94.8902L1440 333.48V0Z" fill="#9FD18B"/>
<path d="M1440 91L1419.5 288L1440 334V91Z" fill="#11292F"/>
<path d="M1250 435L1281.24 346.09L1302.97 384.24L1322.67 314.26L1286.42 201.08L1387.67 305.16L1373.7 402.68L1391.89 366.81L1440 435H1250Z" fill="#11292F"/>
<path d="M1281.24 51.5203L1330.76 194.51L1291.85 135.4L1281.24 51.5203Z" fill="#11292F"/>
<path d="M599.64 394.85L689.07 217.63L687.56 255.31L724.95 228.87L599.64 394.85Z" fill="#9FD18B"/>
<path d="M743.51 306.24L721.91 376.81L681.37 405.1L743.51 306.24Z" fill="#11292F"/>
<path d="M569.32 417.33L599.64 313.75L606.71 339.52L569.32 417.33Z" fill="#11292F"/>
<path d="M1067.51 208.66L1101.37 306.24L1028.1 384.24L1074.59 309.58L1067.51 208.66Z" fill="white"/>
<path d="M935.64 237.46L973.53 296.45L949.02 328.91L962.42 373.63L961.41 328.4L988.69 295.56L935.64 237.46Z" fill="white"/>
<path d="M1242.84 104.57L1210.5 228.87L1259.51 305.54L1247.39 241L1242.84 104.57Z" fill="white"/>
<path d="M789.81 301.5L752.54 416.83L789.81 375.39V301.5Z" fill="white"/>
<path d="M71.6402 362.94L108.85 242.89L65.2002 318.68L71.6402 362.94Z" fill="#11292F"/>
<path d="M13.54 183.21V389.04L38.29 352.75L13.54 183.21Z" fill="white"/>
<path d="M541.03 224.32L567.3 142.13L596.1 185.1L656.74 57.0802L608.74 224.94L580.95 185.1L541.03 224.32Z" fill="#9FD18B"/>
</svg>
