<svg width="27" height="28" viewBox="0 0 27 28" fill="none" xmlns="http://www.w3.org/2000/svg">
<path d="M25.92 0H1.08C0.482625 0 0 0.5005 0 1.12V26.88C0 27.4995 0.482625 28 1.08 28H25.92C26.5174 28 27 27.4995 27 26.88V1.12C27 0.5005 26.5174 0 25.92 0ZM24.84 25.76H18.6266V17.157H22.1366L22.6631 12.9325H18.6266V10.234C18.6266 9.009 18.954 8.176 20.6449 8.176H22.8015V4.396C22.4269 4.3435 21.1478 4.228 19.656 4.228C16.5443 4.228 14.4146 6.1985 14.4146 9.814V12.929H10.8979V17.1535H14.418V25.76H2.16V2.24H24.84V25.76Z" fill="white"/>
</svg>
