<svg width="1440" height="640" viewBox="0 0 1440 640" fill="none" xmlns="http://www.w3.org/2000/svg">
<path d="M1440 0H0V250.27H1440V0Z" fill="white"/>
<path fill-rule="evenodd" clip-rule="evenodd" d="M522.59 341.02L479.39 583.75L455.13 553.43L301.65 640H0V188.13L82.25 0L108.85 50.95L124.69 22.91L148.23 64.49L181.91 52.08L234.21 177.52L234.59 98.69L301.65 216.17L402.43 76.72V122.19L425.71 93.39L486.97 166.15L574.88 33.52L589.28 66.86L664.31 0L714.34 41.85L730.25 13.81L862.88 82.78L908.36 176L902.29 120.67L973.53 219.2L990.97 178.27L1082.67 219.2L1120.57 96.42L1129.66 129.01L1163.77 0L1286.55 50.19L1272.9 11.54L1440 68.38V160.08L1360.62 405.41L1345.08 309.11L1244.86 548.88L1211.89 435.02L1064.73 577.3L1001.58 529.56L940.19 640H846.97L743.51 424.83L687.81 522.28L637.79 405.64L596.86 334.4L612.78 250.27L546.08 391.24L522.59 341.02Z" fill="#11292F"/>
<path fill-rule="evenodd" clip-rule="evenodd" d="M299.68 268.36H279.3V375.99H299.68V307.142L308.99 322.22L320.96 341.62L332.94 322.22L342.24 307.152V375.99H362.62V268.36H342.24H342.24L320.96 302.82L299.68 268.36Z" fill="#9FD18B"/>
<path fill-rule="evenodd" clip-rule="evenodd" d="M237.66 268.36H258.04V288.74H237.66V268.36ZM237.66 309.11H258.04V375.99H237.66V309.11Z" fill="#9FD18B"/>
<path fill-rule="evenodd" clip-rule="evenodd" d="M148.23 268.36H168.61V355.61H212.21V375.99H168.61H148.23H148.22V355.61H148.23V268.36Z" fill="#9FD18B"/>
<path d="M450.15 284.05L415.93 268.36H382.05V376H415.93L450.15 360.3V337.87L415.93 322.17L450.15 306.48V284.05ZM425.71 349.05L411.48 355.58H402.43V342.24H410.78L425.71 349.05ZM412.17 301.44H402.43V288.74H411.48L425.71 295.26L412.17 301.44Z" fill="#9FD18B"/>
<path fill-rule="evenodd" clip-rule="evenodd" d="M237.66 414.64H258.04V435.02H237.66V414.64ZM237.66 455.4H258.04V522.28H237.66V455.4Z" fill="#F69A9B"/>
<path fill-rule="evenodd" clip-rule="evenodd" d="M363.21 414.64H279.3V414.65V435.02V459.46V479.84V522.28H299.68V479.84H342.24V459.46H299.68V435.02H363.21V414.64Z" fill="#F69A9B"/>
<path fill-rule="evenodd" clip-rule="evenodd" d="M382.05 414.64H450.74V435.02H402.43V459.46H450.74V479.84H402.43V501.9H450.74V522.28H402.43H382.05V501.9V479.84V459.46V435.02V414.65V414.64Z" fill="#F69A9B"/>
<path fill-rule="evenodd" clip-rule="evenodd" d="M148.23 414.64H168.61V501.9H212.21V522.28H148.22V501.9H148.23V414.64Z" fill="#F69A9B"/>
<path fill-rule="evenodd" clip-rule="evenodd" d="M123.26 279.736L108.849 265.325L108.841 265.333L73.9999 278.54L84.7799 284.95L57.6999 297.18L64.3899 302.39L49.1615 325.013L49.1481 325.026L49.1507 325.029L49.1499 325.03V325.04L49.1328 325.046L49.1499 325.091V357.02L55.6751 342.323L68.4292 376.005L68.4688 375.99H132.43V355.61H82.4985L72.8545 330.141L123.26 279.736ZM49.1509 325.029L49.1499 325.03L49.1531 325.038L49.1583 325.036L49.1509 325.029Z" fill="#9FD18B"/>
<path d="M687.81 522.28L637.79 405.64L596.86 334.4L612.78 250.27L546.08 391.24L522.59 341.02L479.39 583.75L455.13 553.43L301.65 640H846.97L743.51 424.83L687.81 522.28Z" fill="#F69A9B"/>
<path d="M1345.08 309.11L1244.86 548.88L1211.89 435.02L1064.73 577.3L1001.58 529.56L940.19 640H1440V160.08L1360.62 405.41L1345.08 309.11Z" fill="#9FD18B"/>
<path d="M1129.65 251.44L1303.23 230.73L1264.25 400.04L1272.78 258.75L1129.65 251.44Z" fill="white"/>
<path d="M1028.1 405.64L937.16 573.14L961.41 431.41L880.31 479.84L799.98 421.56L1028.1 405.64Z" fill="white"/>
<path d="M1369.16 296.5L1426.76 117.64L1363.09 222.99L1369.16 296.5Z" fill="#9FD18B"/>
<path d="M184.57 640L158.42 584.5L129.24 604.97L91.34 435.02L68.45 495.07L0 375.99V640H184.57Z" fill="#9FD18B"/>
<path d="M126.71 640L89.45 615.2L86.2 508L55.72 544.34L27.68 465.01V576.67L0 483.7V640H126.71Z" fill="#11292F"/>
<path d="M570.34 71.92L512.74 166.91L528.4 286.65L531.93 168.42L570.34 71.92Z" fill="#9FD18B"/>
<path d="M831.56 153.26L837.11 88.59L855.81 146.69L861.87 125.14L911.89 230.73L871.72 172.21L857.32 198.23L831.56 153.26Z" fill="#F69A9B"/>
<path d="M740.86 465.01L814.38 626.95L734.8 552.5L740.86 465.01Z" fill="#11292F"/>
<path d="M529.41 400.04L502.88 609.52L529.41 528.42V400.04Z" fill="#11292F"/>
<path d="M340.27 640L455.13 553.43L463.72 596.72L340.27 640Z" fill="#11292F"/>
<path d="M586.63 345.89L597.49 454.4L677.58 540.8L615.43 452.37L586.63 345.89Z" fill="white"/>
<path d="M693.11 640L619.6 512.09V563.28L566.54 469.65V388.97L549.11 479.84L570.34 556.46L534.71 640H693.11Z" fill="#11292F"/>
<path d="M1429.79 278.55L1363.09 485.98L1332.02 382.26L1244.86 548.88L1330.5 465.01L1388.86 533.73L1429.79 278.55Z" fill="#11292F"/>
<path d="M1243.35 640L1200.14 506.82L1166.04 622.02L1148.23 598.15L1057.66 640H1243.35Z" fill="#11292F"/>
<path d="M1388.1 640L1440 445.14V640H1388.1Z" fill="#11292F"/>
</svg>
