<svg width="1440" height="640" viewBox="0 0 1440 640" fill="none" xmlns="http://www.w3.org/2000/svg">
<path d="M466 237L700 0L508 279L466 237Z" fill="#6C8CC7"/>
<path d="M700 0L508 278L396.38 134.96L321.26 173.11L259.58 101.23L198.62 97.82L103.45 0L0 191.8V640H1440V68.38L1200.5 0L1098.5 129L1033.81 121.3L970.31 214.74L700 0Z" fill="#121C2C"/>
<path fill-rule="evenodd" clip-rule="evenodd" d="M168.61 434.64H148.23V521.9H148.22V542.28H212.21V521.9H168.61V434.64ZM258.04 434.64H237.66V455.02H258.04V434.64ZM258.04 475.4H237.66V542.28H258.04V475.4ZM279.3 434.64H363.21V455.02H299.68V479.46H342.24V499.84H299.68V542.28H279.3V499.84V479.46V455.02V434.65V434.64ZM382.05 434.64H450.74V455.02H402.43V479.46H450.74V499.84H402.43V521.9H450.74V542.28H402.43H382.05V521.9V499.84V479.46V455.02V434.65V434.64Z" fill="#6C8CC7"/>
<path fill-rule="evenodd" clip-rule="evenodd" d="M299.68 288.36H279.3V395.99H299.68V327.142L308.99 342.22L320.96 322.82L299.68 288.36ZM342.24 288.36H342.24L320.96 322.82L320.96 322.82L308.99 342.22L320.96 361.62L332.94 342.22L332.94 342.22L342.24 327.152V395.99H362.62V288.36H342.24Z" fill="#9FD18B"/>
<path d="M258.04 329.11H237.66V395.99H258.04V329.11Z" fill="#9FD18B"/>
<path fill-rule="evenodd" clip-rule="evenodd" d="M148.23 288.36H168.61V375.61H212.21V395.99H148.22V375.61H148.23V288.36Z" fill="#9FD18B"/>
<path d="M258.04 288.36H237.66V308.74H258.04V288.36Z" fill="#9FD18B"/>
<path d="M450.15 304.05L415.93 288.36H382.05V396H415.93L450.15 380.3V357.87L415.93 342.17L450.15 326.48V304.05ZM425.71 369.05L411.48 375.58H402.43V362.24H410.78L425.71 369.05ZM412.17 321.44H402.43V308.74H411.48L425.71 315.26L412.17 321.44Z" fill="#9FD18B"/>
<path fill-rule="evenodd" clip-rule="evenodd" d="M123.26 299.736L108.849 285.325L108.841 285.334L73.9999 298.54L84.7799 304.95L57.6999 317.18L64.3899 322.39L49.1616 345.013L49.1481 345.026L49.1507 345.029L49.1499 345.03V345.04L49.1328 345.046L49.1499 345.091V377.02L55.6751 362.323L68.4292 396.005L68.4693 395.99H132.43V375.61H82.4985L72.8545 350.142L123.26 299.736ZM49.1509 345.029L49.1499 345.03L49.1531 345.038L49.1584 345.036L49.1509 345.029Z" fill="#9FD18B"/>
<path d="M483.28 640H846.97L684.38 455.4L483.28 640Z" fill="#6C8CC7"/>
<path d="M547.45 608.39L677.3 495.72L777.35 617.48L677.81 553.32L547.45 608.39Z" fill="#121C2C"/>
<path d="M250.76 114.69L279.3 227.04L332.11 209.77L250.76 114.69Z" fill="#6C8CC7"/>
<path d="M507.42 573.14L634.91 464.26L547.45 315.39L507.42 573.14Z" fill="white"/>
<path d="M611.67 459.46L583.2 486.62L552.88 348.92L611.67 459.46Z" fill="#121C2C"/>
<path d="M92.2802 63.72L22.9902 191.8L25.5202 282.5L92.2802 63.72Z" fill="#9FD18B"/>
<path d="M1207.8 469.65L1315.33 612.05H1415.37V185.74L1207.8 469.65Z" fill="#6C8CC7"/>
<path d="M1321.52 585.91H1391.49V278.55L1321.52 585.91Z" fill="#121C2C"/>
<path d="M1128.88 417.77L1074.22 501.91L1100.34 550.79L984.5 640H1299.25L1128.88 417.77Z" fill="#9FD18B"/>
<path d="M79 640L0 348.92V640H79Z" fill="#9FD18B"/>
<path d="M102.82 640H376.51L88.6699 598.79L102.82 640Z" fill="#6C8CC7"/>
<path d="M1067.12 547.7L970.1 623.8L764.72 501.91L1067.12 547.7Z" fill="white"/>
<path d="M959 275L1041.35 141.02L1125.5 150L1054.23 167.55L959 275Z" fill="#6C8CC7"/>
<path d="M1172 87L1207.8 18.75L1415.37 80.89L1218.44 49.57L1172 87Z" fill="#9FD18B"/>
</svg>
