<svg width="402" height="278" viewBox="0 0 402 278" fill="none" xmlns="http://www.w3.org/2000/svg">
<path d="M209.04 211.06H188.66V277.94H209.04V211.06Z" fill="white"/>
<path d="M209.04 170.3H188.66V190.68H209.04V170.3Z" fill="white"/>
<path d="M230.3 170.31V190.68V277.94H250.68V235.49H293.24V215.11H250.68V190.68H314.21V170.3H230.3V170.31Z" fill="white"/>
<path d="M401.75 190.68V170.3H333.05V190.68V215.11V235.49V257.56V277.94H353.43H401.75V257.56H353.43V235.49H401.75V215.11H353.43V190.68H401.75Z" fill="white"/>
<path d="M119.61 170.3H99.2297V257.56H99.2197V277.94H99.2297H119.61H163.21V257.56H119.61V170.3Z" fill="white"/>
<path d="M293.24 4.02002L271.96 38.48L250.68 4.02002H230.3V111.65H250.68V42.81L259.99 57.88L271.96 77.27L283.94 57.88L293.24 42.81V111.65H313.62V4.02002H293.25H293.24Z" fill="white"/>
<path d="M209.04 44.77H188.66V111.65H209.04V44.77Z" fill="white"/>
<path d="M209.04 4.00977H188.66V24.3898H209.04V4.00977Z" fill="white"/>
<path d="M119.61 4.02002H99.2297V91.27H99.2197V111.65H99.2297H119.61H163.21V91.27H119.61V4.02002Z" fill="white"/>
<path d="M23.8699 65.7902L74.2599 15.4002L59.8499 0.990234L24.9999 14.2002L35.7799 20.6102L8.6999 32.8402L15.3899 38.0502L0.149902 60.6902L19.4499 111.65H83.4399V91.2702H33.5199L23.8699 65.7902Z" fill="white"/>
<path d="M401.15 19.71L366.93 4H333.05V111.65H366.93L401.15 96V73.53L366.93 57.83L401.15 42.13V19.71ZM376.71 84.71L362.48 91.24H353.43V77.89H361.78L376.71 84.71ZM363.17 37.1H353.43V24.4H362.48L376.71 30.92L363.17 37.1Z" fill="white"/>
<path d="M6.6799 77.9499L0.149902 60.6899V92.6799L6.6799 77.9499Z" fill="white"/>
</svg>
