<svg width="1440" height="357" viewBox="0 0 1440 357" fill="none" xmlns="http://www.w3.org/2000/svg">
<path d="M0 357L71.24 207.68L96.25 241.12L139.5 159.85H490.36L535.07 74.8301L587.37 105.91L688.93 8.12012L907.2 357H875.5L715 126.5L784 357H688.93L674 262.5L587.37 206L672 59L544 184.5V113.5L490.36 215L562 262.5L490.36 357H0Z" fill="#6C8CC7"/>
<path d="M856.04 202.52L797.43 113.72L954.19 0.540039L1039.83 85.42L1110.32 43.36L1192.17 173.45L1108.04 74.83L1036.56 156.67L942.06 61.77L856.04 202.52Z" fill="#9FD18B"/>
<path d="M985.26 357L1124.71 169.55L1195.96 233.97L1310.4 32.3701L1440 138.5V308L1373 213.5L1305.5 121L1254 308L1212.5 296L1164 357H985.26Z" fill="#9FD18B"/>
<path d="M944.36 330.04L879.27 237.88L926.15 158.96L954.57 203.68L957.22 129.67L1039.41 216.81L944.36 330.04Z" fill="white"/>
<path d="M258.04 228.06H237.66V294.94H258.04V228.06Z" fill="white"/>
<path d="M258.04 187.3H237.66V207.68H258.04V187.3Z" fill="white"/>
<path d="M279.3 187.31V207.68V294.94H299.68V252.49H342.24V232.11H299.68V207.68H363.21V187.3H279.3V187.31Z" fill="white"/>
<path d="M450.75 207.68V187.3H382.05V207.68V232.11V252.49V274.56V294.94H402.43H450.75V274.56H402.43V252.49H450.75V232.11H402.43V207.68H450.75Z" fill="white"/>
<path d="M168.61 187.3H148.23V274.56H148.22V294.94H148.23H168.61H212.21V274.56H168.61V187.3Z" fill="white"/>
<path d="M342.24 21.02L320.96 55.48L299.68 21.02H279.3V128.65H299.68V59.81L308.99 74.88L320.96 94.27L332.94 74.88L342.24 59.81V128.65H362.62V21.02H342.25H342.24Z" fill="white"/>
<path d="M258.04 61.77H237.66V128.65H258.04V61.77Z" fill="white"/>
<path d="M258.04 21.0098H237.66V41.3898H258.04V21.0098Z" fill="white"/>
<path d="M168.61 21.02H148.23V108.27H148.22V128.65H148.23H168.61H212.21V108.27H168.61V21.02Z" fill="white"/>
<path d="M72.8699 82.7902L123.26 32.4002L108.85 17.9902L73.9999 31.2002L84.7799 37.6102L57.6999 49.8402L64.3899 55.0502L49.1499 77.6902L50 108.27L55 95.5L68.4499 128.65H132.44V108.27H82.5199L72.8699 82.7902Z" fill="white"/>
<path d="M450.15 36.71L415.93 21H382.05V128.65H415.93L450.15 113V90.53L415.93 74.83L450.15 59.13V36.71ZM425.71 101.71L411.48 108.24H402.43V94.89H410.78L425.71 101.71ZM412.17 54.1H402.43V41.4H411.48L425.71 47.92L412.17 54.1Z" fill="white"/>
</svg>
