<svg width="1440" height="357" viewBox="0 0 1440 357" fill="none" xmlns="http://www.w3.org/2000/svg">
<path d="M0 357L71.24 207.68L96.25 241.12L139.5 159.85H490.36L535.07 74.8301L587.37 105.91L688.93 8.12012L907.2 357H875.5L715 126.5L784 357H688.93L674 262.5L587.37 206L672 59L544 184.5V113.5L490.36 215L562 262.5L490.36 357H0Z" fill="#6C8CC7"/>
<path d="M856.04 202.52L797.43 113.72L954.19 0.540039L1039.83 85.42L1110.32 43.36L1192.17 173.45L1108.04 74.83L1036.56 156.67L942.06 61.77L856.04 202.52Z" fill="#9FD18B"/>
<path d="M985.26 357L1124.71 169.55L1195.96 233.97L1310.4 32.3701L1440 308L1373 213.5L1305.5 121L1254 308L1212.5 296L1164 357H985.26Z" fill="#9FD18B"/>
<path d="M944.359 330.04L879.27 237.88L926.15 158.96L954.57 203.68L957.219 129.67L1039.41 216.81L944.359 330.04Z" fill="white"/>
<path d="M248.89 228.06H228.51V294.94H248.89V228.06Z" fill="white"/>
<path d="M248.89 187.3H228.51V207.68H248.89V187.3Z" fill="white"/>
<path d="M270.15 187.31V207.68V294.94H290.53V252.49H333.09V232.11H290.53V207.68H354.06V187.3H270.15V187.31Z" fill="white"/>
<path d="M441.6 207.68V187.3H372.9V207.68V232.11V252.49V274.56V294.94H393.28H441.6V274.56H393.28V252.49H441.6V232.11H393.28V207.68H441.6Z" fill="white"/>
<path d="M159.46 187.3H139.08V274.56H139.07V294.94H139.08H159.46H203.06V274.56H159.46V187.3Z" fill="white"/>
<path d="M333.09 21.02L311.81 55.48L290.53 21.02H270.15V128.65H290.53V59.81L299.84 74.88L311.81 94.27L323.79 74.88L333.09 59.81V128.65H353.47V21.02H333.1H333.09Z" fill="white"/>
<path d="M248.89 61.77H228.51V128.65H248.89V61.77Z" fill="white"/>
<path d="M248.89 21.0098H228.51V41.3898H248.89V21.0098Z" fill="white"/>
<path d="M159.46 21.02H139.08V108.27H139.07V128.65H139.08H159.46H203.06V108.27H159.46V21.02Z" fill="white"/>
<path d="M63.72 82.7902L114.11 32.4002L99.7 17.9902L64.85 31.2002L75.63 37.6102L48.55 49.8402L55.24 55.0502L40 77.6902L40.8501 108.27L45.8501 95.5L59.3 128.65H123.29V108.27H73.37L63.72 82.7902Z" fill="white"/>
<path d="M441 36.71L406.78 21H372.9V128.65H406.78L441 113V90.53L406.78 74.83L441 59.13V36.71ZM416.56 101.71L402.33 108.24H393.28V94.89H401.63L416.56 101.71ZM403.02 54.1H393.28V41.4H402.33L416.56 47.92L403.02 54.1Z" fill="white"/>
</svg>
