<svg width="1440" height="357" viewBox="0 0 1440 357" fill="none" xmlns="http://www.w3.org/2000/svg">
<path d="M0 357L71.24 207.68L96.25 241.12L139.5 159.85H490.36L535.07 74.8301L587.37 105.91L688.93 8.12012L907.2 357H875L715.5 126.5L784.5 357H696L674 261.5L587.37 210.5L672 58L545 187V112.5L501.5 210.5L564 261.5L501.5 357H0Z" fill="#6C8CC7"/>
<path d="M856.04 202.52L797.43 113.72L954.19 0.540039L1039.83 85.42L1110.32 43.36L1192.17 173.45L1108.04 74.83L1036.56 156.67L942.06 61.77L856.04 202.52Z" fill="#9FD18B"/>
<path d="M985.26 357L1124.71 169.55L1195.96 233.97L1310.4 32.3701L1440 357H985.26Z" fill="#9FD18B"/>
<path d="M944.36 330.04L879.27 237.88L926.15 158.96L954.57 203.68L957.22 129.67L1039.41 216.81L944.36 330.04Z" fill="white"/>
</svg>
