<svg width="28" height="29" viewBox="0 0 28 29" fill="none" xmlns="http://www.w3.org/2000/svg">
<path d="M27.9159 26.8873L18.8264 17.7978C20.2369 15.9743 20.9999 13.7448 20.9999 11.3999C20.9999 8.59287 19.9044 5.96088 17.9234 3.97639C15.9424 1.9919 13.3034 0.899902 10.5 0.899902C7.69647 0.899902 5.05748 1.9954 3.07649 3.97639C1.09199 5.95738 0 8.59287 0 11.3999C0 14.2033 1.0955 16.8423 3.07649 18.8233C5.05748 20.8078 7.69297 21.8998 10.5 21.8998C12.8449 21.8998 15.0709 21.1368 16.8944 19.7298L25.9839 28.8158C26.0105 28.8424 26.0422 28.8636 26.077 28.878C26.1118 28.8925 26.1492 28.8999 26.1869 28.8999C26.2246 28.8999 26.2619 28.8925 26.2968 28.878C26.3316 28.8636 26.3632 28.8424 26.3899 28.8158L27.9159 27.2933C27.9425 27.2666 27.9637 27.235 27.9781 27.2002C27.9926 27.1653 28 27.128 28 27.0903C28 27.0526 27.9926 27.0153 27.9781 26.9804C27.9637 26.9456 27.9425 26.9139 27.9159 26.8873V26.8873ZM16.0439 16.9438C14.5599 18.4243 12.5929 19.2398 10.5 19.2398C8.40696 19.2398 6.43997 18.4243 4.95598 16.9438C3.47549 15.4598 2.65999 13.4928 2.65999 11.3999C2.65999 9.30687 3.47549 7.33637 4.95598 5.85588C6.43997 4.37539 8.40696 3.55989 10.5 3.55989C12.5929 3.55989 14.5634 4.37189 16.0439 5.85588C17.5244 7.33987 18.3399 9.30687 18.3399 11.3999C18.3399 13.4928 17.5244 15.4633 16.0439 16.9438Z" fill="white"/>
</svg>
