<svg width="28" height="29" viewBox="0 0 28 29" fill="none" xmlns="http://www.w3.org/2000/svg">
<path d="M14 6.53335C14.3713 6.53335 14.7274 6.38585 14.9899 6.1233C15.2525 5.86075 15.4 5.50465 15.4 5.13335V2.33335C15.4 1.96205 15.2525 1.60595 14.9899 1.3434C14.7274 1.08085 14.3713 0.93335 14 0.93335C13.6287 0.93335 13.2726 1.08085 13.0101 1.3434C12.7475 1.60595 12.6 1.96205 12.6 2.33335V5.13335C12.6 5.50465 12.7475 5.86075 13.0101 6.1233C13.2726 6.38585 13.6287 6.53335 14 6.53335ZM26.6 13.5333H23.8C23.4287 13.5333 23.0726 13.6808 22.81 13.9434C22.5475 14.206 22.4 14.562 22.4 14.9333C22.4 15.3047 22.5475 15.6607 22.81 15.9233C23.0726 16.1858 23.4287 16.3333 23.8 16.3333H26.6C26.9713 16.3333 27.3274 16.1858 27.59 15.9233C27.8525 15.6607 28 15.3047 28 14.9333C28 14.562 27.8525 14.206 27.59 13.9434C27.3274 13.6808 26.9713 13.5333 26.6 13.5333ZM5.6 14.9333C5.6 14.562 5.4525 14.206 5.18995 13.9434C4.9274 13.6808 4.5713 13.5333 4.2 13.5333H1.4C1.0287 13.5333 0.672601 13.6808 0.41005 13.9434C0.1475 14.206 0 14.562 0 14.9333C0 15.3047 0.1475 15.6607 0.41005 15.9233C0.672601 16.1858 1.0287 16.3333 1.4 16.3333H4.2C4.5713 16.3333 4.9274 16.1858 5.18995 15.9233C5.4525 15.6607 5.6 15.3047 5.6 14.9333ZM5.908 5.13335C5.63509 4.87529 5.27085 4.73622 4.8954 4.74672C4.51995 4.75722 4.16406 4.91644 3.906 5.18935C3.64794 5.46226 3.50887 5.8265 3.51937 6.20195C3.52987 6.5774 3.68909 6.93329 3.962 7.19135L5.978 9.13735C6.11329 9.26798 6.27351 9.37002 6.4491 9.43737C6.62469 9.50472 6.81205 9.536 7 9.52935C7.18859 9.52863 7.37508 9.48982 7.5483 9.41524C7.72151 9.34066 7.87788 9.23185 8.008 9.09535C8.26875 8.83304 8.41511 8.47821 8.41511 8.10835C8.41511 7.73849 8.26875 7.38366 8.008 7.12135L5.908 5.13335ZM21 9.52935C21.3605 9.52791 21.7065 9.3875 21.966 9.13735L23.982 7.19135C24.2279 6.93438 24.3668 6.59344 24.3705 6.23777C24.3742 5.88209 24.2423 5.53836 24.0017 5.27639C23.7611 5.01441 23.4298 4.85383 23.0751 4.82726C22.7204 4.8007 22.3689 4.91013 22.092 5.13335L20.076 7.12135C19.8152 7.38366 19.6689 7.73849 19.6689 8.10835C19.6689 8.47821 19.8152 8.83304 20.076 9.09535C20.3184 9.35116 20.6484 9.50614 21 9.52935ZM14 23.3333C13.6287 23.3333 13.2726 23.4808 13.0101 23.7434C12.7475 24.0059 12.6 24.362 12.6 24.7333V27.5333C12.6 27.9047 12.7475 28.2607 13.0101 28.5233C13.2726 28.7859 13.6287 28.9333 14 28.9333C14.3713 28.9333 14.7274 28.7859 14.9899 28.5233C15.2525 28.2607 15.4 27.9047 15.4 27.5333V24.7333C15.4 24.362 15.2525 24.0059 14.9899 23.7434C14.7274 23.4808 14.3713 23.3333 14 23.3333ZM22.022 20.7293C21.7547 20.4713 21.3958 20.33 21.0243 20.3366C20.6527 20.3431 20.2991 20.497 20.041 20.7643C19.7829 21.0317 19.6417 21.3906 19.6482 21.7621C19.6548 22.1336 19.8087 22.4873 20.076 22.7454L22.092 24.7333C22.3515 24.9835 22.6975 25.1239 23.058 25.1254C23.2456 25.1264 23.4315 25.0898 23.6046 25.0177C23.7778 24.9455 23.9347 24.8393 24.066 24.7053C24.1972 24.5752 24.3014 24.4204 24.3724 24.2498C24.4435 24.0792 24.4801 23.8962 24.4801 23.7113C24.4801 23.5265 24.4435 23.3435 24.3724 23.1729C24.3014 23.0023 24.1972 22.8475 24.066 22.7173L22.022 20.7293ZM5.978 20.7293L3.962 22.6753C3.83078 22.8055 3.72663 22.9603 3.65555 23.1309C3.58448 23.3015 3.54788 23.4845 3.54788 23.6693C3.54788 23.8542 3.58448 24.0372 3.65555 24.2078C3.72663 24.3784 3.83078 24.5332 3.962 24.6634C4.09331 24.7973 4.2502 24.9035 4.42336 24.9757C4.59652 25.0478 4.78241 25.0844 4.97 25.0833C5.31512 25.0863 5.64916 24.9616 5.908 24.7333L7.924 22.7873C8.19134 22.5293 8.34522 22.1756 8.35178 21.8041C8.35834 21.4326 8.21706 21.0737 7.959 20.8063C7.70094 20.539 7.34726 20.3851 6.97575 20.3786C6.60424 20.372 6.24534 20.5133 5.978 20.7713V20.7293ZM14 9.33335C12.8924 9.33335 11.8097 9.66178 10.8888 10.2771C9.96789 10.8925 9.25013 11.7671 8.82627 12.7903C8.40242 13.8136 8.29152 14.9396 8.5076 16.0259C8.72368 17.1121 9.25703 18.11 10.0402 18.8931C10.8234 19.6763 11.8212 20.2097 12.9075 20.4257C13.9938 20.6418 15.1198 20.5309 16.143 20.1071C17.1663 19.6832 18.0409 18.9655 18.6562 18.0445C19.2716 17.1236 19.6 16.0409 19.6 14.9333C19.6 13.4481 19.01 12.0238 17.9598 10.9736C16.9096 9.92335 15.4852 9.33335 14 9.33335V9.33335Z" fill="white"/>
</svg>
