<svg width="28" height="28" viewBox="0 0 28 28" fill="none" xmlns="http://www.w3.org/2000/svg">
<path d="M14 6.34693C14.3713 6.34693 14.7274 6.20434 14.9899 5.95054C15.2525 5.69675 15.4 5.35252 15.4 4.99359V2.28693C15.4 1.928 15.2525 1.58378 14.9899 1.32998C14.7274 1.07618 14.3713 0.933594 14 0.933594C13.6287 0.933594 13.2726 1.07618 13.0101 1.32998C12.7475 1.58378 12.6 1.928 12.6 2.28693V4.99359C12.6 5.35252 12.7475 5.69675 13.0101 5.95054C13.2726 6.20434 13.6287 6.34693 14 6.34693ZM26.6 13.1136H23.8C23.4287 13.1136 23.0726 13.2562 22.81 13.51C22.5475 13.7638 22.4 14.108 22.4 14.4669C22.4 14.8259 22.5475 15.1701 22.81 15.4239C23.0726 15.6777 23.4287 15.8203 23.8 15.8203H26.6C26.9713 15.8203 27.3274 15.6777 27.59 15.4239C27.8525 15.1701 28 14.8259 28 14.4669C28 14.108 27.8525 13.7638 27.59 13.51C27.3274 13.2562 26.9713 13.1136 26.6 13.1136ZM5.6 14.4669C5.6 14.108 5.4525 13.7638 5.18995 13.51C4.9274 13.2562 4.5713 13.1136 4.2 13.1136H1.4C1.0287 13.1136 0.672601 13.2562 0.41005 13.51C0.1475 13.7638 0 14.108 0 14.4669C0 14.8259 0.1475 15.1701 0.41005 15.4239C0.672601 15.6777 1.0287 15.8203 1.4 15.8203H4.2C4.5713 15.8203 4.9274 15.6777 5.18995 15.4239C5.4525 15.1701 5.6 14.8259 5.6 14.4669ZM5.908 4.99359C5.63509 4.74414 5.27085 4.6097 4.8954 4.61985C4.51995 4.63001 4.16406 4.78392 3.906 5.04773C3.64794 5.31154 3.50887 5.66364 3.51937 6.02657C3.52987 6.3895 3.68909 6.73354 3.962 6.98299L5.978 8.86413C6.11329 8.99041 6.27351 9.08904 6.4491 9.15415C6.62469 9.21925 6.81205 9.24949 7 9.24306C7.18859 9.24237 7.37508 9.20484 7.5483 9.13275C7.72151 9.06066 7.87788 8.95548 8.008 8.82353C8.26875 8.56996 8.41511 8.22696 8.41511 7.86943C8.41511 7.5119 8.26875 7.16889 8.008 6.91533L5.908 4.99359ZM21 9.24306C21.3605 9.24167 21.7065 9.10594 21.966 8.86413L23.982 6.98299C24.2279 6.73459 24.3668 6.40501 24.3705 6.0612C24.3742 5.71738 24.2423 5.38511 24.0017 5.13186C23.7611 4.87862 23.4298 4.72339 23.0751 4.69771C22.7204 4.67203 22.3689 4.77782 22.092 4.99359L20.076 6.91533C19.8152 7.16889 19.6689 7.5119 19.6689 7.86943C19.6689 8.22696 19.8152 8.56996 20.076 8.82353C20.3184 9.07081 20.6484 9.22062 21 9.24306ZM14 22.5869C13.6287 22.5869 13.2726 22.7295 13.0101 22.9833C12.7475 23.2371 12.6 23.5813 12.6 23.9403V26.6469C12.6 27.0059 12.7475 27.3501 13.0101 27.6039C13.2726 27.8577 13.6287 28.0003 14 28.0003C14.3713 28.0003 14.7274 27.8577 14.9899 27.6039C15.2525 27.3501 15.4 27.0059 15.4 26.6469V23.9403C15.4 23.5813 15.2525 23.2371 14.9899 22.9833C14.7274 22.7295 14.3713 22.5869 14 22.5869ZM22.022 20.0697C21.7547 19.8203 21.3958 19.6837 21.0243 19.69C20.6527 19.6964 20.2991 19.8451 20.041 20.1036C19.7829 20.362 19.6417 20.7089 19.6482 21.0681C19.6548 21.4272 19.8087 21.7691 20.076 22.0185L22.092 23.9403C22.3515 24.1821 22.6975 24.3178 23.058 24.3192C23.2456 24.3203 23.4315 24.2849 23.6046 24.2151C23.7778 24.1454 23.9347 24.0427 24.066 23.9132C24.1972 23.7874 24.3014 23.6377 24.3724 23.4728C24.4435 23.3079 24.4801 23.131 24.4801 22.9523C24.4801 22.7737 24.4435 22.5968 24.3724 22.4319C24.3014 22.267 24.1972 22.1173 24.066 21.9915L22.022 20.0697ZM5.978 20.0697L3.962 21.9509C3.83078 22.0767 3.72663 22.2264 3.65555 22.3913C3.58448 22.5562 3.54788 22.7331 3.54788 22.9117C3.54788 23.0904 3.58448 23.2673 3.65555 23.4322C3.72663 23.5971 3.83078 23.7468 3.962 23.8726C4.09331 24.0021 4.2502 24.1048 4.42336 24.1745C4.59652 24.2443 4.78241 24.2797 4.97 24.2786C5.31512 24.2814 5.64916 24.1609 5.908 23.9403L7.924 22.0591C8.19134 21.8097 8.34522 21.4678 8.35178 21.1087C8.35834 20.7495 8.21706 20.4026 7.959 20.1442C7.70094 19.8857 7.34726 19.737 6.97575 19.7306C6.60424 19.7243 6.24534 19.8609 5.978 20.1103V20.0697ZM14 9.05359C12.8924 9.05359 11.8097 9.37108 10.8888 9.96591C9.96789 10.5607 9.25013 11.4062 8.82627 12.3953C8.40242 13.3845 8.29152 14.4729 8.5076 15.523C8.72368 16.5731 9.25703 17.5377 10.0402 18.2947C10.8234 19.0518 11.8212 19.5674 12.9075 19.7762C13.9938 19.9851 15.1198 19.8779 16.143 19.4682C17.1663 19.0585 18.0409 18.3646 18.6562 17.4744C19.2716 16.5842 19.6 15.5376 19.6 14.4669C19.6 13.0312 19.01 11.6543 17.9598 10.6391C16.9096 9.62393 15.4852 9.05359 14 9.05359V9.05359Z" fill="white"/>
</svg>
